<svg xmlns="http://www.w3.org/2000/svg" viewBox="0 0 1220 460" width="1220" height="460" fill="none" stroke="#D9A441" stroke-width="6" stroke-linecap="round" stroke-linejoin="round">
<g transform="translate(40 150) scale(1.3)"><path d="M20 30 h120 a10 10 0 0 1 10 10 v60 a10 10 0 0 1 -10 10 h-70 l-30 26 v-26 h-20 a10 10 0 0 1 -10 -10 v-60 a10 10 0 0 1 10 -10 z" /><path d="M42 58 h76 M42 82 h50" stroke-width="5" /></g><g transform="translate(610 330) scale(1.35)">
  <path d="M-70 0 H70" />
  <path d="M-40 0 C-40 -14 -30 -22 -18 -24 H18 C30 -22 40 -14 40 0" />
  <path d="M-110 -40 C-110 -70 -70 -86 0 -86 C70 -86 110 -70 110 -40 C110 -30 90 -24 60 -24 H-60 C-90 -24 -110 -30 -110 -40 Z" />
  <path d="M110 -52 C150 -56 170 -80 196 -104 C204 -112 214 -108 208 -98 C190 -70 160 -34 104 -32" />
  <path d="M-110 -52 C-150 -52 -164 -84 -140 -98 C-122 -108 -104 -92 -108 -70" />
  <path d="M-30 -86 C-30 -104 -16 -112 0 -112 C16 -112 30 -104 30 -86" />
  <circle cx="0" cy="-120" r="8" />
  <path d="M204 -112 C196 -150 232 -160 222 -196 C214 -224 246 -236 240 -262" stroke="#9CA3AF" stroke-width="4" />
  <path d="M226 -120 C232 -150 262 -170 256 -206" stroke="#6B7280" stroke-width="4" />
</g><g transform="translate(1000 150) scale(1.3)"><path d="M80 18 l16 40 42 4 -32 28 10 42 -36 -22 -36 22 10 -42 -32 -28 42 -4 z" /></g><path d="M270 250 H400 M380 232 L402 250 L380 268" stroke="#9CA3AF" /><path d="M830 250 H960 M940 232 L962 250 L940 268" stroke="#9CA3AF" /><text x="144" y="420" fill="#F9FAFB" stroke="none" font-family="Poppins, sans-serif" font-size="44" font-weight="600" text-anchor="middle">prompt</text><text x="610" y="420" fill="#F9FAFB" stroke="none" font-family="Poppins, sans-serif" font-size="44" font-weight="600" text-anchor="middle">IA</text><text x="1104" y="420" fill="#F9FAFB" stroke="none" font-family="Poppins, sans-serif" font-size="44" font-weight="600" text-anchor="middle">desejo</text>
</svg>
